# xmcd
#
# Track frame offsets: 
#        150
#        13177
#        25609
#        36658
#        45339
#        62954
#        74054
#        79940
#        94518
#        109861
#        125076
#        139905
#        151592
#        160902
#        168302
#        183018
#
# Disc length: 2645 seconds
#
# Revision: 0
# Processed by: cddbd v1.5.2PL0 Copyright (c) Steve Scherf et al.
# Submitted via: ExactAudioCopy v0.99pb4
#
DISCID=d40a5310
DTITLE=Will Tura - Hemels - Kerst and Gospelliedjes - CD 1
DYEAR=2014
DGENRE=Chanson
TTITLE0=Witte Kerstmis
TTITLE1=Een Oude Kerstmiskaart
TTITLE2=Stille Nacht
TTITLE3=Jingle Bells
TTITLE4=Ave Maria
TTITLE5=Kleine Trommelaar
TTITLE6=Kleine Stad Van Bethlehem
TTITLE7=Kerstmis Met Jou
TTITLE8=Maria's Kind
TTITLE9=Adeste Fideles
TTITLE10=Rode Rozen In De Sneeuw
TTITLE11=Wees Mijn Kerstgeschenk
TTITLE12=Kerstlied
TTITLE13=Rond De Kerstboom
TTITLE14=Vrolijk Kerstfeest, Gelukkig Nieuwjaar
TTITLE15=Oh Zoete Lieve Heer
EXTD=
EXTT0=
EXTT1=
EXTT2=
EXTT3=
EXTT4=
EXTT5=
EXTT6=
EXTT7=
EXTT8=
EXTT9=
EXTT10=
EXTT11=
EXTT12=
EXTT13=
EXTT14=
EXTT15=
PLAYORDER=
